<svg xmlns="http://www.w3.org/2000/svg" xmlns:xlink="http://www.w3.org/1999/xlink" width="500" zoomAndPan="magnify" viewBox="0 0 375 374.999991" height="500" preserveAspectRatio="xMidYMid meet" version="1.0"><path fill="#0364b8" d="M 147.640625 141.496094 L 147.640625 141.484375 L 220.121094 184.925781 L 263.308594 166.734375 C 267.699219 164.839844 272.234375 163.40625 276.917969 162.441406 C 281.601562 161.476562 286.332031 160.996094 291.113281 161.003906 C 292.710938 161.003906 294.285156 161.078125 295.847656 161.175781 C 295.203125 158.660156 294.46875 156.171875 293.644531 153.707031 C 292.820312 151.246094 291.910156 148.8125 290.910156 146.417969 C 289.910156 144.019531 288.828125 141.660156 287.65625 139.34375 C 286.488281 137.023438 285.234375 134.75 283.902344 132.523438 C 282.570312 130.292969 281.15625 128.117188 279.667969 125.988281 C 278.175781 123.863281 276.609375 121.792969 274.96875 119.78125 C 273.332031 117.765625 271.621094 115.816406 269.839844 113.925781 C 268.058594 112.035156 266.210938 110.210938 264.300781 108.457031 C 262.386719 106.699219 260.414062 105.011719 258.378906 103.398438 C 256.347656 101.785156 254.257812 100.246094 252.113281 98.785156 C 249.96875 97.320312 247.773438 95.9375 245.527344 94.632812 C 243.285156 93.328125 240.996094 92.105469 238.660156 90.964844 C 236.328125 89.828125 233.957031 88.773438 231.550781 87.804688 C 229.140625 86.835938 226.699219 85.957031 224.226562 85.164062 C 221.753906 84.375 219.257812 83.671875 216.734375 83.058594 C 214.210938 82.449219 211.671875 81.929688 209.109375 81.5 C 206.550781 81.074219 203.976562 80.738281 201.394531 80.496094 C 198.808594 80.253906 196.21875 80.105469 193.621094 80.050781 C 191.027344 79.996094 188.433594 80.035156 185.839844 80.167969 C 183.25 80.300781 180.664062 80.523438 178.089844 80.84375 C 175.511719 81.164062 172.949219 81.574219 170.402344 82.078125 C 167.859375 82.582031 165.332031 83.175781 162.828125 83.863281 C 160.324219 84.550781 157.851562 85.324219 155.402344 86.191406 C 152.953125 87.054688 150.542969 88.007812 148.164062 89.046875 C 145.785156 90.085938 143.445312 91.210938 141.148438 92.417969 C 138.847656 93.628906 136.597656 94.917969 134.394531 96.289062 C 132.1875 97.660156 130.035156 99.109375 127.933594 100.632812 C 125.835938 102.160156 123.792969 103.761719 121.808594 105.433594 C 119.824219 107.109375 117.902344 108.851562 116.042969 110.664062 C 114.183594 112.476562 112.390625 114.355469 110.667969 116.296875 C 108.941406 118.238281 107.292969 120.242188 105.710938 122.300781 C 104.132812 124.363281 102.628906 126.480469 101.203125 128.648438 L 102.304688 128.617188 C 106.289062 128.613281 110.253906 128.882812 114.203125 129.429688 C 118.148438 129.976562 122.039062 130.792969 125.871094 131.882812 C 129.707031 132.972656 133.445312 134.320312 137.089844 135.933594 C 140.734375 137.542969 144.253906 139.394531 147.640625 141.496094 Z M 147.640625 141.496094 " fill-opacity="1" fill-rule="nonzero"/><path fill="#0078d4" d="M 147.652344 141.484375 C 144.261719 139.386719 140.746094 137.53125 137.097656 135.921875 C 133.453125 134.3125 129.710938 132.964844 125.875 131.878906 C 122.042969 130.789062 118.152344 129.972656 114.203125 129.425781 C 110.257812 128.878906 106.289062 128.609375 102.304688 128.617188 L 101.203125 128.648438 C 99.253906 128.671875 97.308594 128.765625 95.367188 128.921875 C 93.425781 129.078125 91.492188 129.296875 89.5625 129.585938 C 87.636719 129.871094 85.722656 130.226562 83.816406 130.640625 C 81.914062 131.058594 80.027344 131.539062 78.15625 132.085938 C 76.285156 132.632812 74.4375 133.238281 72.605469 133.910156 C 70.777344 134.582031 68.972656 135.3125 67.191406 136.105469 C 65.410156 136.898438 63.660156 137.75 61.9375 138.660156 C 60.214844 139.574219 58.527344 140.542969 56.871094 141.570312 C 55.214844 142.59375 53.59375 143.675781 52.007812 144.8125 C 50.425781 145.949219 48.882812 147.136719 47.378906 148.375 C 45.875 149.617188 44.417969 150.90625 43 152.246094 C 41.585938 153.585938 40.21875 154.972656 38.894531 156.40625 C 37.574219 157.835938 36.300781 159.3125 35.078125 160.832031 C 33.855469 162.351562 32.6875 163.90625 31.570312 165.503906 C 30.453125 167.105469 29.394531 168.738281 28.386719 170.40625 C 27.382812 172.078125 26.433594 173.777344 25.542969 175.511719 C 24.652344 177.246094 23.820312 179.007812 23.050781 180.800781 C 22.277344 182.589844 21.570312 184.40625 20.921875 186.242188 C 20.273438 188.082031 19.6875 189.941406 19.164062 191.816406 C 18.640625 193.695312 18.183594 195.589844 17.789062 197.5 C 17.394531 199.410156 17.066406 201.328125 16.800781 203.261719 C 16.535156 205.191406 16.335938 207.128906 16.203125 209.074219 C 16.070312 211.019531 16.003906 212.96875 16.003906 214.917969 C 16 216.867188 16.066406 218.816406 16.195312 220.761719 C 16.328125 222.707031 16.523438 224.644531 16.785156 226.574219 C 17.046875 228.507812 17.375 230.429688 17.765625 232.339844 C 18.15625 234.25 18.613281 236.144531 19.132812 238.023438 C 19.652344 239.902344 20.238281 241.757812 20.882812 243.597656 C 21.527344 245.4375 22.234375 247.253906 23.003906 249.046875 C 23.773438 250.835938 24.601562 252.601562 25.492188 254.335938 C 26.378906 256.070312 27.324219 257.773438 28.328125 259.445312 C 29.332031 261.117188 30.390625 262.75 31.507812 264.351562 L 95.398438 237.4375 L 123.816406 225.476562 L 187.074219 198.832031 L 220.109375 184.925781 Z M 147.652344 141.484375 " fill-opacity="1" fill-rule="nonzero"/><path fill="#1490df" d="M 295.847656 161.175781 C 294.273438 161.066406 292.695312 161.007812 291.113281 161.003906 C 286.332031 161 281.601562 161.480469 276.921875 162.449219 C 272.242188 163.414062 267.707031 164.847656 263.320312 166.746094 L 220.121094 184.925781 L 232.648438 192.429688 L 273.699219 217.03125 L 291.609375 227.765625 L 352.859375 264.46875 C 353.550781 263.183594 354.203125 261.875 354.8125 260.550781 C 355.425781 259.222656 355.992188 257.878906 356.519531 256.519531 C 357.046875 255.15625 357.53125 253.777344 357.972656 252.386719 C 358.414062 250.992188 358.808594 249.589844 359.164062 248.171875 C 359.515625 246.753906 359.824219 245.328125 360.089844 243.890625 C 360.355469 242.457031 360.574219 241.011719 360.746094 239.5625 C 360.921875 238.113281 361.050781 236.65625 361.132812 235.199219 C 361.21875 233.742188 361.253906 232.28125 361.246094 230.820312 C 361.238281 229.363281 361.1875 227.902344 361.085938 226.445312 C 360.988281 224.988281 360.84375 223.535156 360.65625 222.085938 C 360.464844 220.640625 360.230469 219.199219 359.953125 217.765625 C 359.675781 216.332031 359.351562 214.90625 358.980469 213.496094 C 358.613281 212.082031 358.203125 210.679688 357.746094 209.292969 C 357.292969 207.90625 356.792969 206.535156 356.253906 205.175781 C 355.710938 203.820312 355.128906 202.484375 354.503906 201.164062 C 353.878906 199.84375 353.214844 198.542969 352.507812 197.265625 C 351.804688 195.984375 351.058594 194.730469 350.273438 193.5 C 349.492188 192.265625 348.667969 191.0625 347.808594 189.878906 C 346.949219 188.699219 346.054688 187.546875 345.125 186.421875 C 344.191406 185.296875 343.226562 184.203125 342.226562 183.136719 C 341.226562 182.074219 340.195312 181.042969 339.132812 180.042969 C 338.070312 179.042969 336.976562 178.074219 335.851562 177.144531 C 334.726562 176.214844 333.574219 175.316406 332.394531 174.457031 C 331.214844 173.597656 330.007812 172.777344 328.777344 171.992188 C 327.546875 171.207031 326.292969 170.460938 325.015625 169.757812 C 323.734375 169.050781 322.4375 168.386719 321.117188 167.761719 C 319.796875 167.136719 318.460938 166.554688 317.105469 166.011719 C 315.75 165.46875 314.378906 164.972656 312.992188 164.515625 C 311.605469 164.0625 310.207031 163.648438 308.792969 163.28125 C 307.378906 162.914062 305.957031 162.589844 304.523438 162.308594 C 303.09375 162.03125 301.652344 161.796875 300.203125 161.609375 C 298.757812 161.417969 297.304688 161.273438 295.847656 161.175781 Z M 295.847656 161.175781 " fill-opacity="1" fill-rule="nonzero"/><path fill="#28a8ea" d="M 291.609375 227.765625 L 273.699219 217.03125 L 232.648438 192.417969 L 220.132812 184.925781 L 187.085938 198.832031 L 123.828125 225.476562 L 95.398438 237.4375 L 31.484375 264.351562 C 33.464844 267.195312 35.605469 269.914062 37.914062 272.5 C 40.21875 275.089844 42.671875 277.53125 45.273438 279.820312 C 47.871094 282.113281 50.601562 284.242188 53.457031 286.203125 C 56.316406 288.164062 59.28125 289.949219 62.351562 291.554688 C 65.421875 293.160156 68.582031 294.574219 71.824219 295.796875 C 75.066406 297.019531 78.371094 298.046875 81.734375 298.871094 C 85.101562 299.695312 88.503906 300.316406 91.945312 300.730469 C 95.386719 301.144531 98.839844 301.347656 102.304688 301.347656 L 291.113281 301.347656 C 294.265625 301.347656 297.402344 301.136719 300.523438 300.714844 C 303.644531 300.292969 306.726562 299.664062 309.761719 298.828125 C 312.800781 297.988281 315.769531 296.949219 318.667969 295.714844 C 321.5625 294.476562 324.367188 293.046875 327.070312 291.433594 C 329.777344 289.816406 332.363281 288.027344 334.824219 286.0625 C 337.289062 284.097656 339.613281 281.976562 341.789062 279.699219 C 343.96875 277.421875 345.984375 275.007812 347.835938 272.457031 C 349.691406 269.90625 351.363281 267.246094 352.859375 264.46875 Z M 291.609375 227.765625 " fill-opacity="1" fill-rule="nonzero"/></svg>